<svg xmlns="http://www.w3.org/2000/svg" version="1.1" xmlns:xlink="http://www.w3.org/1999/xlink" xmlns:svgjs="http://svgjs.dev/svgjs" width="2000" height="1000" preserveAspectRatio="none" viewBox="0 0 2000 1000"><g mask="url(&quot;#SvgjsMask4261&quot;)" fill="none"><rect width="2000" height="1000" x="0" y="0" fill="url(&quot;#SvgjsLinearGradient4262&quot;)"></rect><path d="M796 530L795 -23" stroke-width="6" stroke="url(&quot;#SvgjsLinearGradient4263&quot;)" stroke-linecap="round" class="Down"></path><path d="M1240 788L1239 1519" stroke-width="8" stroke="url(&quot;#SvgjsLinearGradient4264&quot;)" stroke-linecap="round" class="Up"></path><path d="M663 662L662 1056" stroke-width="10" stroke="url(&quot;#SvgjsLinearGradient4263&quot;)" stroke-linecap="round" class="Down"></path><path d="M181 104L180 -485" stroke-width="10" stroke="url(&quot;#SvgjsLinearGradient4263&quot;)" stroke-linecap="round" class="Down"></path><path d="M229 599L228 330" stroke-width="8" stroke="url(&quot;#SvgjsLinearGradient4264&quot;)" stroke-linecap="round" class="Up"></path><path d="M1637 472L1636 131" stroke-width="6" stroke="url(&quot;#SvgjsLinearGradient4264&quot;)" stroke-linecap="round" class="Up"></path><path d="M825 385L824 957" stroke-width="8" stroke="url(&quot;#SvgjsLinearGradient4264&quot;)" stroke-linecap="round" class="Up"></path><path d="M1396 124L1395 -542" stroke-width="10" stroke="url(&quot;#SvgjsLinearGradient4264&quot;)" stroke-linecap="round" class="Up"></path><path d="M1942 125L1941 -232" stroke-width="10" stroke="url(&quot;#SvgjsLinearGradient4263&quot;)" stroke-linecap="round" class="Down"></path><path d="M869 870L868 1491" stroke-width="10" stroke="url(&quot;#SvgjsLinearGradient4263&quot;)" stroke-linecap="round" class="Down"></path><path d="M1346 647L1345 1126" stroke-width="8" stroke="url(&quot;#SvgjsLinearGradient4263&quot;)" stroke-linecap="round" class="Down"></path><path d="M839 983L838 707" stroke-width="8" stroke="url(&quot;#SvgjsLinearGradient4263&quot;)" stroke-linecap="round" class="Down"></path><path d="M438 443L437 784" stroke-width="6" stroke="url(&quot;#SvgjsLinearGradient4263&quot;)" stroke-linecap="round" class="Down"></path><path d="M876 486L875 1117" stroke-width="8" stroke="url(&quot;#SvgjsLinearGradient4264&quot;)" stroke-linecap="round" class="Up"></path><path d="M1092 875L1091 1467" stroke-width="8" stroke="url(&quot;#SvgjsLinearGradient4264&quot;)" stroke-linecap="round" class="Up"></path><path d="M946 777L945 1100" stroke-width="8" stroke="url(&quot;#SvgjsLinearGradient4264&quot;)" stroke-linecap="round" class="Up"></path><path d="M826 798L825 188" stroke-width="8" stroke="url(&quot;#SvgjsLinearGradient4264&quot;)" stroke-linecap="round" class="Up"></path><path d="M1554 805L1553 449" stroke-width="6" stroke="url(&quot;#SvgjsLinearGradient4263&quot;)" stroke-linecap="round" class="Down"></path><path d="M72 388L71 1072" stroke-width="6" stroke="url(&quot;#SvgjsLinearGradient4264&quot;)" stroke-linecap="round" class="Up"></path><path d="M378 90L377 343" stroke-width="10" stroke="url(&quot;#SvgjsLinearGradient4264&quot;)" stroke-linecap="round" class="Up"></path><path d="M487 986L486 601" stroke-width="8" stroke="url(&quot;#SvgjsLinearGradient4263&quot;)" stroke-linecap="round" class="Down"></path><path d="M1278 20L1277 -571" stroke-width="6" stroke="url(&quot;#SvgjsLinearGradient4264&quot;)" stroke-linecap="round" class="Up"></path><path d="M447 328L446 595" stroke-width="10" stroke="url(&quot;#SvgjsLinearGradient4264&quot;)" stroke-linecap="round" class="Up"></path><path d="M187 869L186 586" stroke-width="6" stroke="url(&quot;#SvgjsLinearGradient4263&quot;)" stroke-linecap="round" class="Down"></path><path d="M1528 199L1527 -261" stroke-width="6" stroke="url(&quot;#SvgjsLinearGradient4263&quot;)" stroke-linecap="round" class="Down"></path><path d="M1883 442L1882 -156" stroke-width="6" stroke="url(&quot;#SvgjsLinearGradient4264&quot;)" stroke-linecap="round" class="Up"></path><path d="M875 330L874 988" stroke-width="6" stroke="url(&quot;#SvgjsLinearGradient4264&quot;)" stroke-linecap="round" class="Up"></path><path d="M1946 424L1945 172" stroke-width="6" stroke="url(&quot;#SvgjsLinearGradient4264&quot;)" stroke-linecap="round" class="Up"></path><path d="M590 84L589 -467" stroke-width="10" stroke="url(&quot;#SvgjsLinearGradient4264&quot;)" stroke-linecap="round" class="Up"></path><path d="M1750 839L1749 341" stroke-width="6" stroke="url(&quot;#SvgjsLinearGradient4264&quot;)" stroke-linecap="round" class="Up"></path><path d="M1550 856L1549 454" stroke-width="10" stroke="url(&quot;#SvgjsLinearGradient4264&quot;)" stroke-linecap="round" class="Up"></path><path d="M716 873L715 318" stroke-width="10" stroke="url(&quot;#SvgjsLinearGradient4263&quot;)" stroke-linecap="round" class="Down"></path><path d="M1119 280L1118 766" stroke-width="10" stroke="url(&quot;#SvgjsLinearGradient4263&quot;)" stroke-linecap="round" class="Down"></path><path d="M409 12L408 -564" stroke-width="6" stroke="url(&quot;#SvgjsLinearGradient4263&quot;)" stroke-linecap="round" class="Down"></path><path d="M744 202L743 611" stroke-width="10" stroke="url(&quot;#SvgjsLinearGradient4263&quot;)" stroke-linecap="round" class="Down"></path><path d="M1902 716L1901 1122" stroke-width="8" stroke="url(&quot;#SvgjsLinearGradient4263&quot;)" stroke-linecap="round" class="Down"></path><path d="M1590 482L1589 1062" stroke-width="8" stroke="url(&quot;#SvgjsLinearGradient4263&quot;)" stroke-linecap="round" class="Down"></path><path d="M1444 234L1443 932" stroke-width="6" stroke="url(&quot;#SvgjsLinearGradient4263&quot;)" stroke-linecap="round" class="Down"></path><path d="M1359 117L1358 699" stroke-width="10" stroke="url(&quot;#SvgjsLinearGradient4264&quot;)" stroke-linecap="round" class="Up"></path><path d="M1454 93L1453 567" stroke-width="6" stroke="url(&quot;#SvgjsLinearGradient4264&quot;)" stroke-linecap="round" class="Up"></path><path d="M1481 354L1480 1080" stroke-width="6" stroke="url(&quot;#SvgjsLinearGradient4263&quot;)" stroke-linecap="round" class="Down"></path><path d="M335 631L334 105" stroke-width="6" stroke="url(&quot;#SvgjsLinearGradient4263&quot;)" stroke-linecap="round" class="Down"></path><path d="M1908 440L1907 179" stroke-width="8" stroke="url(&quot;#SvgjsLinearGradient4263&quot;)" stroke-linecap="round" class="Down"></path><path d="M1295 587L1294 305" stroke-width="6" stroke="url(&quot;#SvgjsLinearGradient4263&quot;)" stroke-linecap="round" class="Down"></path><path d="M734 21L733 -300" stroke-width="8" stroke="url(&quot;#SvgjsLinearGradient4263&quot;)" stroke-linecap="round" class="Down"></path><path d="M1223 123L1222 -154" stroke-width="10" stroke="url(&quot;#SvgjsLinearGradient4264&quot;)" stroke-linecap="round" class="Up"></path><path d="M1331 12L1330 -248" stroke-width="8" stroke="url(&quot;#SvgjsLinearGradient4264&quot;)" stroke-linecap="round" class="Up"></path><path d="M582 107L581 398" stroke-width="8" stroke="url(&quot;#SvgjsLinearGradient4264&quot;)" stroke-linecap="round" class="Up"></path><path d="M1181 881L1180 1317" stroke-width="6" stroke="url(&quot;#SvgjsLinearGradient4264&quot;)" stroke-linecap="round" class="Up"></path><path d="M1185 289L1184 37" stroke-width="8" stroke="url(&quot;#SvgjsLinearGradient4264&quot;)" stroke-linecap="round" class="Up"></path></g><defs><mask id="SvgjsMask4261"><rect width="2000" height="1000" fill="#ffffff"></rect></mask><linearGradient x1="12.5%" y1="125%" x2="87.5%" y2="-25%" gradientUnits="userSpaceOnUse" id="SvgjsLinearGradient4262"><stop stop-color="#0e2a47" offset="0"></stop><stop stop-color="rgba(141, 216, 166, 0.97)" offset="1"></stop></linearGradient><linearGradient x1="0%" y1="0%" x2="0%" y2="100%" id="SvgjsLinearGradient4263"><stop stop-color="rgba(255, 215, 0, 0)" offset="0"></stop><stop stop-color="rgba(255, 215, 0, 1)" offset="1"></stop></linearGradient><linearGradient x1="0%" y1="100%" x2="0%" y2="0%" id="SvgjsLinearGradient4264"><stop stop-color="rgba(255, 215, 0, 0)" offset="0"></stop><stop stop-color="rgba(255, 215, 0, 1)" offset="1"></stop></linearGradient></defs></svg>